<?xml version="1.0" encoding="UTF-8" standalone="no"?>
<svg
   version="1.1"
   id="svg2424"
   x="0px"
   y="0px"
   viewBox="0 0 175 166.2"
   style="enable-background:new 0 0 175 166.2;"
   xml:space="preserve"
   xmlns="http://www.w3.org/2000/svg"
   xmlns:svg="http://www.w3.org/2000/svg"
   xmlns:ns="ns_sfw;"><defs
   id="defs1" />
 <style
   type="text/css"
   id="style1">
  .st0{fill-rule:evenodd;clip-rule:evenodd;fill:#1793D1;}
	.st1{fill:#1793D1;}
 </style>
 <metadata
   id="metadata1">
  <ns:sfw>
   <ns:slices>
   </ns:slices>
   <ns:sliceSourceBounds
   bottomLeftOrigin="true"
   height="166.2"
   width="175"
   x="21.8"
   y="16.6">
   </ns:sliceSourceBounds>
  </ns:sfw>
 </metadata>
 <g
   id="layer1"
   transform="translate(-34.777313,-129.80241)">
  <g
   id="g2424"
   transform="matrix(0.8746356,0,0,0.8746356,14.730518,23.408954)">
   <path
   id="path2518"
   class="st0"
   d="M117.9,121.6c-8.5,20.7-13.6,34.3-23,54.4c5.8,6.1,12.9,13.2,24.4,21.3    c-12.4-5.1-20.8-10.2-27.1-15.5c-12.1,25.1-30.9,61-69.2,129.8c30.1-17.4,53.5-28.1,75.2-32.2c-0.9-4-1.5-8.4-1.4-12.9l0-1    c0.5-19.3,10.5-34.1,22.4-33.1s21.1,17.5,20.7,36.8c-0.1,3.6-0.5,7.1-1.2,10.4c21.5,4.2,44.6,14.9,74.3,32    c-5.9-10.8-11.1-20.5-16.1-29.8c-7.9-6.1-16.1-14-32.8-22.6c11.5,3,19.7,6.4,26.2,10.3C139.4,175.1,135.3,162.5,117.9,121.6z">
   </path>
   
  </g>
 </g>
</svg>
