<?xml version="1.0" encoding="UTF-8" standalone="no"?>
<svg
   version="1.1"
   id="svg2424"
   x="0px"
   y="0px"
   viewBox="0 0 166.2 166.2"
   xml:space="preserve"
   sodipodi:docname="Arch Linux_id88cJMSem_0.svg"
   inkscape:version="1.4.2 (ebf0e940d0, 2025-05-08)"
   width="166.2"
   height="166.2"
   xmlns:inkscape="http://www.inkscape.org/namespaces/inkscape"
   xmlns:sodipodi="http://sodipodi.sourceforge.net/DTD/sodipodi-0.dtd"
   xmlns="http://www.w3.org/2000/svg"
   xmlns:svg="http://www.w3.org/2000/svg"
   xmlns:ns="ns_sfw;"><defs
   id="defs1" /><sodipodi:namedview
   id="namedview1"
   pagecolor="#ffffff"
   bordercolor="#000000"
   borderopacity="0.25"
   inkscape:showpageshadow="2"
   inkscape:pageopacity="0.0"
   inkscape:pagecheckerboard="0"
   inkscape:deskcolor="#d1d1d1"
   inkscape:zoom="6.973526"
   inkscape:cx="87.617082"
   inkscape:cy="83.099998"
   inkscape:window-width="2560"
   inkscape:window-height="1368"
   inkscape:window-x="0"
   inkscape:window-y="0"
   inkscape:window-maximized="1"
   inkscape:current-layer="g2424" />
 <style
   type="text/css"
   id="style1">
  .st0{fill-rule:evenodd;clip-rule:evenodd;}
 </style>
 <metadata
   id="metadata1">
  <ns:sfw>
   <ns:slices>
   </ns:slices>
   <ns:sliceSourceBounds
   bottomLeftOrigin="true"
   height="166.2"
   width="175"
   x="21.8"
   y="16.6">
   </ns:sliceSourceBounds>
  </ns:sfw>
 </metadata>
 <g
   id="layer1"
   transform="translate(-34.777313,-129.80241)">
  <g
   id="g2424"
   transform="matrix(0.8746356,0,0,0.8746356,14.730518,23.408954)">
   <path
   id="path2518"
   class="st0"
   d="m 117.9,121.6 c -8.5,20.7 -13.6,34.3 -23,54.4 5.8,6.1 12.9,13.2 24.4,21.3 -12.4,-5.1 -20.8,-10.2 -27.1,-15.5 -12.1,25.1 -30.9,61 -69.2,129.8 30.1,-17.4 53.5,-28.1 75.2,-32.2 -0.9,-4 -1.5,-8.4 -1.4,-12.9 v -1 c 0.5,-19.3 10.5,-34.1 22.4,-33.1 11.9,1 21.1,17.5 20.7,36.8 -0.1,3.6 -0.5,7.1 -1.2,10.4 21.5,4.2 44.6,14.9 74.3,32 -5.9,-10.8 -11.1,-20.5 -16.1,-29.8 -7.9,-6.1 -16.1,-14 -32.8,-22.6 11.5,3 19.7,6.4 26.2,10.3 -50.9,-94.4 -55,-107 -72.4,-147.9 z">
   </path>
   
  </g>
 </g>
</svg>
